<?xml version="1.0" encoding="UTF-8"?>
<!DOCTYPE svg PUBLIC "-//W3C//DTD SVG 1.1//EN" "http://www.w3.org/Graphics/SVG/1.1/DTD/svg11.dtd">
<!-- Creator: CorelDRAW -->
<svg xmlns="http://www.w3.org/2000/svg" xml:space="preserve" width="680px" height="698px" version="1.1" style="shape-rendering:geometricPrecision; text-rendering:geometricPrecision; image-rendering:optimizeQuality; fill-rule:evenodd; clip-rule:evenodd"
viewBox="0 0 84.54 86.79"
 xmlns:xlink="http://www.w3.org/1999/xlink"
 xmlns:xodm="http://www.corel.com/coreldraw/odm/2003">
 <defs>
  <style type="text/css">
   <![CDATA[
    .str3 {stroke:#FEFEFE;stroke-width:0.29;stroke-miterlimit:22.9256}
    .str1 {stroke:#84716B;stroke-width:0.29;stroke-miterlimit:22.9256}
    .str0 {stroke:#F58634;stroke-width:0.29;stroke-miterlimit:22.9256}
    .str2 {stroke:#00A859;stroke-width:0.29;stroke-miterlimit:22.9256}
    .fil3 {fill:#FEFEFE}
    .fil1 {fill:#84716B}
    .fil0 {fill:#F58634}
    .fil2 {fill:#00A859}
   ]]>
  </style>
 </defs>
 <g id="Camada_x0020_1">
  <metadata id="CorelCorpID_0Corel-Layer"/>
  <path class="fil0 str0" d="M35.26 21.91l2.57 0.24 -0.15 2.88 -2.96 -0.19 0.54 -2.93zm-13.96 2.65c-0.48,-2.18 0.44,-3.27 2.86,-2.31l-0.06 2.56c-1.55,0.4 -1.29,0.54 -2.8,-0.25zm41.66 -2.3c1.46,2.56 -0.12,3.25 -2.66,2.54l0.2 -2.75 2.46 0.21zm-15.67 2.67c-0.89,-2.55 0.2,-3.59 2.84,-2.64l-0.23 2.6 -2.61 0.04zm10.63 -8.89c-1.17,1.82 -1.26,1.63 -3.14,0.93 -0.31,-1.94 -0.43,-0.65 0.15,-2.22 1.82,-0.92 2.44,-0.59 2.99,1.29zm-16.23 1.1c-0.66,-4.9 4.4,-3.42 2.63,0.16l-2.63 -0.16zm-11.59 -2.34c1.75,-0.8 0.63,-0.9 2.86,-0.24l-0.07 2.49c-2.1,0.62 -3.67,0.27 -2.79,-2.25zm47.98 20.41c1.2,-16.48 -16.41,-32.15 -36.36,-31.95 -23.59,0.24 -38.07,21.62 -35.06,32.26 6.88,0.37 69.23,0.49 71.42,-0.31z"/>
  <path class="fil1 str1" d="M9.61 53.64l63.21 0c4.71,0 8.58,0.57 8.29,-4.92 -0.26,-5.01 -5.19,-3.96 -9.84,-3.95l-55.44 0c-3.79,0 -10.42,-1.12 -11.92,1.84 -1.56,3.09 -1.12,7.03 5.7,7.03z"/>
  <path class="fil0 str0" d="M78.08 35.21c-2.19,0.8 -64.54,0.68 -71.42,0.31 -3.01,-10.64 11.47,-32.02 35.06,-32.26 19.95,-0.2 37.56,15.47 36.36,31.95zm-40.7 -34.86c-16.57,1.54 -28.95,12.56 -32.85,25.63 -4.57,15.35 1.45,12.79 13.89,12.79 14.94,0 45.66,0.65 58.56,0 12.14,-0.6 -0.83,-42 -39.6,-38.42z"/>
  <path class="fil0 str0" d="M77.94 74.15l-71.35 -0.07c1.03,7.34 7.2,8.88 13.38,8.87l44.56 0c7.63,0.01 11.94,-1.91 13.41,-8.8z"/>
  <path class="fil1 str1" d="M9.61 53.64c-6.82,0 -7.26,-3.94 -5.7,-7.03 1.5,-2.96 8.13,-1.84 11.92,-1.84l55.44 0c4.65,-0.01 9.58,-1.06 9.84,3.95 0.29,5.49 -3.58,4.92 -8.29,4.92l-63.21 0zm-9.31 -2.88c1.15,8.04 10.91,6.01 18.63,6.01l49.75 0c5.63,0 17.25,2.07 15.55,-9.1 -1.25,-8.16 -11.41,-6.02 -18.66,-6.02l-49.74 0c-5.67,0 -17.14,-2.12 -15.53,9.11z"/>
  <path class="fil0 str0" d="M19.97 82.95c-6.18,0.01 -12.35,-1.53 -13.38,-8.87l71.35 0.07c-1.47,6.89 -5.78,8.81 -13.41,8.8l-44.56 0zm-16.82 -12.07c0.07,20.05 21.07,15.26 39.1,15.26 19.77,0 38.49,4.84 39.1,-15.29l-78.2 0.03z"/>
  <path class="fil2 str2" d="M10.13 62.48c5.17,-1.21 7.76,2.49 9.86,4.34 2.75,2.42 7.56,3.25 11.77,1.43 3.84,-1.66 5.25,-5.19 8.68,-5.82 5.85,-1.06 7.11,2.31 9.7,4.3 2.97,2.29 8.06,3.48 12.13,1.52 3.7,-1.78 4.42,-5.03 8.69,-5.78 6.22,-1.1 8.29,4.54 10.15,2.75 2.92,-2.81 -5.04,-5.8 -7.3,-6 -10.04,-0.88 -12.09,10.96 -20.8,5.68 -2.41,-1.46 -3.31,-4.77 -8.81,-5.57 -11.28,-1.66 -11.62,10.61 -21,5.81 -2.59,-1.32 -6.49,-8.14 -15.01,-5.42 -7.16,2.28 -6.24,7.46 -2.84,5.55 1.68,-0.94 1.58,-2.05 4.78,-2.79z"/>
  <path class="fil3 str3" d="M41.69 17.14l2.63 0.16c1.77,-3.58 -3.29,-5.06 -2.63,-0.16z"/>
  <path class="fil3 str3" d="M30.1 14.8c-0.88,2.52 0.69,2.87 2.79,2.25l0.07 -2.49c-2.23,-0.66 -1.11,-0.56 -2.86,0.24z"/>
  <path class="fil3 str3" d="M21.3 24.56c1.51,0.79 1.25,0.65 2.8,0.25l0.06 -2.56c-2.42,-0.96 -3.34,0.13 -2.86,2.31z"/>
  <path class="fil3 str3" d="M47.29 24.93l2.61 -0.04 0.23 -2.6c-2.64,-0.95 -3.73,0.09 -2.84,2.64z"/>
  <path class="fil3 str3" d="M60.5 22.05l-0.2 2.75c2.54,0.71 4.12,0.02 2.66,-2.54l-2.46 -0.21z"/>
  <path class="fil3 str3" d="M54.93 14.75c-0.58,1.57 -0.46,0.28 -0.15,2.22 1.88,0.7 1.97,0.89 3.14,-0.93 -0.55,-1.88 -1.17,-2.21 -2.99,-1.29z"/>
  <polygon class="fil3 str3" points="34.72,24.84 37.68,25.03 37.83,22.15 35.26,21.91 "/>
 </g>
</svg>
